PathFileType	4	(X/Y/Z)	Run_400 01
DataRate	CameraRate	NumFrames	NumMarkers	Units	OrigDataRate	OrigDataStartFrame	OrigNumFrames
120	120	4	42	mm	120	59	128
Frame#	Time	LASI			RASI			LPSI			RPSI			RTH1			RTH2			RTH3			LTH1			LTH2			LTH3			RTB1			RTB2			RTB3			LTB1			LTB2			LTB3			RCAL			RTOE			RMT5			LCAL			LTOE			LMT5			LACR			RACR			CLAV			C7			RUA1			RUA2			RUA3			RLEL			RMEL			LUA1			LUA2			LUA3			LLEL			LMEL			RFAsuperior			RFAradius			RFAulna			LFAsuperior			LFAradius			LFAulna			
		X1	Y1	Z1	X2	Y2	Z2	X3	Y3	Z3	X4	Y4	Z4	X5	Y5	Z5	X6	Y6	Z6	X7	Y7	Z7	X8	Y8	Z8	X9	Y9	Z9	X10	Y10	Z10	X11	Y11	Z11	X12	Y12	Z12	X13	Y13	Z13	X14	Y14	Z14	X15	Y15	Z15	X16	Y16	Z16	X17	Y17	Z17	X18	Y18	Z18	X19	Y19	Z19	X20	Y20	Z20	X21	Y21	Z21	X22	Y22	Z22	X23	Y23	Z23	X24	Y24	Z24	X25	Y25	Z25	X26	Y26	Z26	X27	Y27	Z27	X28	Y28	Z28	X29	Y29	Z29	X30	Y30	Z30	X31	Y31	Z31	X32	Y32	Z32	X33	Y33	Z33	X34	Y34	Z34	X35	Y35	Z35	X36	Y36	Z36	X37	Y37	Z37	X38	Y38	Z38	X39	Y39	Z39	X40	Y40	Z40	X41	Y41	Z41	X42	Y42	Z42	

59	0.566667	719.627394	984.440618	-501.817066	744.9824630000001	990.438318	-242.30667	559.8172	1011.953413	-389.09019	571.178753	1011.147345	-306.061464	762.771177	824.9537800000001	-198.204857	879.581992	754.8681759999999	-227.888016	872.274769	623.49481	-201.074464	661.360041	838.335608	-527.6538	706.711924	721.164852	-508.060048	625.334762	588.83673	-484.070666	807.922921	479.561121	-261.186163	737.7375019999999	511.824178	-207.484387	630.047004	476.022576	-271.72638	615.195385	351.41211	-388.227562	529.078033	269.089235	-426.891599	508.104366	198.542562	-344.562336	478.301957	566.778395	-275.030339	497.009206	347.548032	-261.434076	476.142336	385.515139	-174.364483	345.831355	125.212958	-337.839325	556.629923	70.951841	-327.012178	524.506916	59.357252	-412.410401	737.545217	1426.818249	-551.8420640000001	719.439648	1450.09948	-178.766147	826.019786	1393.888164	-330.081054	699.217923	1490.04632	-370.211864	662.0079469999999	1365.534003	-109.935328	656.064088	1295.814116	-101.651034	555.075216	1314.548833	-84.287199	552.1793249999999	1230.68035	-27.174562	508.945972	1216.194852	-101.345969	703.529762	1355.649095	-606.926188	642.106713	1287.594136	-589.823438	683.799695	1272.796315	-651.030756	664.2598840000001	1174.408327	-704.637291	635.722045	1118.976473	-641.340726	614.550738	1169.815236	-33.602467	728.809992	1061.201162	-94.21016299999999	671.430709	1023.823161	-85.00813599999999	737.7112980000001	1181.47583	-690.9470669999999	882.154086	1186.720897	-587.761579	888.08835	1126.913477	-622.75787	
60	0.575	719.300179	986.169651	-503.365625	746.000197	997.948877	-245.744676	561.132089	1017.446294	-390.199372	572.539699	1017.253487	-306.504011	768.210051	835.494407	-199.746996	886.549981	769.1806329999999	-230.586824	885.1138999999999	637.001263	-204.577642	656.619826	842.0047070000001	-527.584959	695.687485	723.73257	-507.269361	605.300145	595.633718	-482.097934	829.61614	484.968694	-264.420372	757.070839	511.393863	-209.989264	651.8597119999999	465.599116	-272.563164	587.072185	357.329333	-388.511195	499.086554	277.212472	-428.070293	478.615439	205.250162	-346.190115	492.426539	541.524534	-275.760923	533.3886	325.395206	-261.396406	509.868123	361.898536	-173.932999	316.598004	134.5935	-340.679051	524.60041	71.61228699999999	-327.964808	490.336466	59.449231	-412.069532	741.24316	1433.52632	-550.926951	715.064446	1456.514229	-179.015878	824.4782709999999	1401.073741	-327.186081	698.5169069999999	1495.803419	-370.170363	655.901866	1373.746618	-110.365975	648.943172	1304.047656	-101.71072	547.717867	1324.346881	-86.066537	542.115334	1240.643527	-29.686719	499.698027	1227.14394	-104.898297	710.141887	1360.674222	-605.980654	647.760581	1292.720584	-590.65574	692.76534	1276.515306	-648.882562	675.121768	1177.054326	-700.789717	645.380611	1122.545191	-636.608614	604.122936	1179.790747	-34.531394	719.12778	1071.101269	-92.68137	661.359519	1033.713355	-85.719612	747.928117	1187.108208	-685.39357	889.521082	1199.217812	-579.797036	898.018116	1138.912103	-613.049658	
61	0.583333	719.5105569999999	988.969139	-504.105954	747.29219	1005.559175	-249.462986	562.526933	1023.344598	-391.459401	573.69544	1023.776696	-306.767418	773.563722	846.1538880000001	-201.420291	892.517004	782.750215	-233.001997	896.079303	649.673913	-207.930545	652.210596	845.91418	-527.6250250000001	685.106749	726.791657	-506.782077	586.1048	603.919091	-480.348496	850.351963	490.479333	-267.754682	776.004498	509.906621	-212.620962	673.906374	454.15623	-273.350218	560.086004	365.371266	-389.145919	470.617151	287.340859	-429.926777	450.900429	213.487644	-348.899756	508.382786	514.3161260000001	-277.041998	571.439422	303.806121	-262.260422	545.675843	338.490079	-174.223747	289.304406	145.789621	-344.147986	493.196278	72.44926	-328.955785	456.589558	59.645539	-411.80223	744.772785	1440.826202	-549.660571	710.958524	1463.043548	-179.21219	822.626952	1408.650894	-324.489281	697.660052	1501.652998	-369.741508	650.235599	1382.183884	-110.791182	642.360352	1312.386291	-101.92798	541.023459	1334.382142	-87.59320099999999	533.0566250000001	1250.926165	-32.082116	490.839556	1238.399586	-108.080891	716.281906	1366.710791	-604.891243	653.414117	1298.656947	-591.434571	701.2441219999999	1281.436258	-646.929739	684.90397	1181.285322	-697.3022549999999	653.29006	1127.625452	-632.69861	594.681503	1190.210808	-35.673489	710.012061	1081.231425	-91.612469	652.064764	1043.786273	-86.28065100000001	756.944065	1193.856909	-680.275641	895.125957	1211.600675	-571.6723469999999	905.91856	1151.049932	-603.129197	
62	0.5916670000000001	720.125128	992.877127	-504.325673	748.810779	1012.975991	-253.148549	563.947874	1029.4551	-392.746545	574.960562	1030.611566	-307.087212	778.617039	856.499988	-203.167116	897.532526	795.410476	-235.079878	904.992194	661.2535350000001	-211.205246	647.528183	850.004641	-527.712181	674.90508	730.275992	-506.427249	568.3093679999999	613.341934	-479.148983	869.847759	495.908746	-271.192611	794.486817	507.33859	-215.396253	696.728064	441.852926	-274.485132	534.98351	375.280866	-390.519295	444.157613	299.165368	-432.518996	425.485407	222.978814	-352.872801	526.399592	485.487337	-278.67993	611.175524	282.99614	-264.041409	583.332718	315.353551	-175.456172	264.24324	158.669545	-348.103089	462.439593	73.33516400000001	-330.171967	423.629417	60.066234	-411.87232	748.108519	1448.400992	-548.062277	707.102167	1469.528666	-179.358306	820.529576	1416.2741	-322.021084	696.80262	1507.591807	-369.037926	644.999607	1390.639983	-111.248822	636.294949	1320.69085	-102.331836	534.985678	1344.432916	-88.996223	524.891229	1261.287944	-34.366173	482.567344	1249.679938	-110.975638	721.8893399999999	1373.488109	-603.714128	658.7991040000001	1305.25478	-592.231774	709.079329	1287.218401	-645.261201	693.5250129999999	1186.66844	-694.358395	659.793545	1133.67837	-629.762877	586.120189	1200.762727	-36.923798	701.494187	1091.288139	-91.051537	643.543436	1053.782633	-86.666454	764.705944	1201.171772	-675.684419	899.028175	1223.50187	-563.620395	911.892896	1162.879108	-593.269543	
